<svg version="1.1" viewBox="0.0 0.0 96.0 96.0" fill="none" stroke="none" stroke-linecap="square" stroke-miterlimit="10" xmlns:xlink="http://www.w3.org/1999/xlink" xmlns="http://www.w3.org/2000/svg"><clipPath id="p.0"><path d="m0 0l96.0 0l0 96.0l-96.0 0l0 -96.0z" clip-rule="nonzero"/></clipPath><g clip-path="url(#p.0)"><path fill="#000000" fill-opacity="0.0" d="m0 0l96.0 0l0 96.0l-96.0 0z" fill-rule="evenodd"/><path fill="#000000" fill-opacity="0.0" d="m16.203959 16.934383l44.472443 0l0 50.61417l-44.472443 0z" fill-rule="evenodd"/><path fill="#ffffff" d="m44.62583 47.443756l-0.546875 8.890625l-25.531248 0l0 -1.53125q0.6875 -0.046875 1.609375 -0.171875q0.921875 -0.140625 1.203125 -0.25q0.703125 -0.28125 0.96875 -0.765625q0.28125 -0.484375 0.28125 -1.25l0 -19.546875q0 -0.703125 -0.21875 -1.15625q-0.203125 -0.46875 -1.03125 -0.84375q-0.59375 -0.265625 -1.453125 -0.421875q-0.84375 -0.171875 -1.359375 -0.25l0 -1.53125l15.218748 0l0 1.53125q-0.625 0.046875 -1.484375 0.15625q-0.8437481 0.109375 -1.4687481 0.3125q-0.75 0.25 -1.015625 0.796875q-0.25 0.53125 -0.25 1.203125l0 18.234375q0 1.28125 0.171875 2.03125q0.1875 0.734375 0.6875 1.09375q0.515625 0.359375 1.421875 0.46875q0.9062481 0.109375 2.499998 0.109375q1.5625 0 3.03125 -0.1875q1.484375 -0.1875 2.125 -0.8125q1.0 -0.984375 2.046875 -2.796875q1.046875 -1.8125 1.671875 -3.3125l1.421875 0z" fill-rule="nonzero"/><path fill="#000000" fill-opacity="0.0" d="m41.01585 25.913385l38.80315 0l0 50.614174l-38.80315 0z" fill-rule="evenodd"/><path fill="#ffffff" d="m75.203354 39.125885q-0.546875 0.046875 -1.5625 0.203125q-1.015625 0.15625 -1.84375 0.765625q-0.71875 0.53125 -1.03125 1.8125q-0.296875 1.28125 -0.296875 3.75l0 19.8125l-3.46875 0l-17.265629 -21.421875l0 13.0q0 2.421875 0.3125 3.6875q0.328125 1.25 1.046875 1.84375q0.53125 0.421875 1.6875 0.765625q1.15625 0.328125 1.828125 0.4375l0 1.53125l-11.90625 0l0 -1.53125q0.765625 -0.046875 1.75 -0.265625q0.984375 -0.234375 1.640625 -0.703125q0.765625 -0.5625 1.046875 -1.703125q0.28125 -1.15625 0.28125 -3.84375l0 -13.125q0 -0.984375 -0.296875 -1.84375q-0.296875 -0.875 -0.953125 -1.5q-0.671875 -0.65625 -1.5625 -1.03125q-0.890625 -0.390625 -2.03125 -0.609375l0 -1.5625l10.4375 0l15.156254 18.75l0 -10.484375q0 -2.5 -0.34375 -3.71875q-0.328125 -1.21875 -1.046875 -1.8125q-0.5625 -0.453125 -1.6875 -0.765625q-1.1093788 -0.328125 -1.7812538 -0.4375l0 -1.53125l11.890629 0l0 1.53125z" fill-rule="nonzero"/></g></svg>